<?xml version="1.0" standalone="no"?>
<!DOCTYPE svg PUBLIC "-//W3C//DTD SVG 20010904//EN" "http://www.w3.org/TR/2001/REC-SVG-20010904/DTD/svg10.dtd">
<svg version="1.0" 
        xmlns="http://www.w3.org/2000/svg" width="300.000000pt" height="300.000000pt" viewBox="0 0 300.000000 300.000000" preserveAspectRatio="xMidYMid meet">
        <metadata>
Created by potrace 1.10, written by Peter Selinger 2001-2011
</metadata>
        <g transform="translate(0.000000,300.000000) scale(0.100000,-0.100000)" fill="#000000" stroke="none">
                <path d="M10 2751 c0 -5 29 -58 63 -118 35 -59 142 -243 237 -408 95 -165 221
-383 280 -485 59 -102 153 -266 210 -365 57 -99 109 -188 116 -198 10 -16 47
43 273 435 l261 452 0 348 0 348 -720 0 c-430 0 -720 -4 -720 -9z"/>
                <path d="M1550 2414 l0 -347 262 -454 c143 -250 264 -450 268 -446 4 4 96 163
205 353 109 190 247 428 305 530 59 102 173 299 254 438 80 139 146 257 146
262 0 6 -265 10 -720 10 l-720 0 0 -346z"/>
                <path d="M1260 1539 c-102 -176 -186 -324 -188 -330 -2 -5 73 -9 187 -9 l191
0 0 330 c0 182 -1 330 -3 330 -1 0 -85 -144 -187 -321z"/>
                <path d="M1550 1532 l0 -332 190 0 c105 0 190 3 190 6 0 8 -364 641 -376 653
-2 2 -4 -145 -4 -327z"/>
                <path d="M978 1068 c11 -18 73 -125 137 -238 165 -286 326 -564 331 -569 2 -2
4 185 4 417 l0 422 -246 0 -246 0 20 -32z"/>
                <path d="M1550 678 c0 -233 4 -418 9 -413 6 7 334 574 478 828 2 4 -106 7
-241 7 l-246 0 0 -422z"/>
        </g>
</svg>